<?xml version="1.0" encoding="UTF-8"?>
<svg id="Capa_2" data-name="Capa 2" xmlns="http://www.w3.org/2000/svg" viewBox="0 0 49.72 69.36">
  <defs>
    <style>
      .cls-1 {
        fill: #fff;
        stroke-width: 0px;
      }
    </style>
  </defs>
  <g id="Capa_1-2" data-name="Capa 1">
    <path class="cls-1" d="M49.72,8.38v-2.18s-.01-.04-.01-.07c0-.02,0-.04,0-.06,0-.29-.17-.55-.44-.67L36.65.15c-.48-.2-1.04-.2-1.52,0l-12.61,5.29c-.27.11-.45.38-.45.67,0,.02,0,.05.01.07,0,.02-.01.03-.01.05v2.74c0,1.73,1.04,3.29,2.64,3.95l6.15,2.56-.11-.05-8.23,3.45s-.07.04-.1.06h-.03s0,.02-.01.02c-.09.06-.16.14-.21.23,0,.01-.01.03-.02.04-.05.1-.08.2-.08.31,0,0,0,0,0,0,0,0,0,0,0,0v6.75s-3.8-1.58-3.8-1.58c-3.01-1.25-6.45-1.24-9.45,0L.44,28.23s-.07.04-.1.06h-.02s0,.02-.01.02c-.09.06-.16.14-.21.24,0,.01-.01.02-.02.04-.05.1-.08.2-.08.31,0,0,0,0,0,0,0,0,0,0,0,0v14.34s-.16,4.71,4.47,6.7l4.79,2v5.97c0,3.47,2.06,6.6,5.24,7.97l8,3.45.19.02h.14l.26-.11c.2-.13.32-.35.33-.6l.11-10.73,2.78,1.16c1.02.43,2.09.65,3.15.65h0c1.52,0,3.02-.45,4.29-1.32,1.9-1.3,2.94-3.3,2.87-5.45v-1.01l8.2-3.4c4.86-2.03,4.91-6.48,4.9-6.92v-22.05s0-.02,0-.04,0-.02,0-.03v-.21l-.09-.1c-.05-.09-.12-.18-.21-.24h-.01s-.02-.02-.02-.02c-.03-.02-.06-.04-.1-.06l-8.24-3.43,5.52-2.3c1.92-.8,3.17-2.67,3.17-4.74ZM22.08,28.48l.02,16.93-11.39,4.85v-17l11.37-4.78ZM9.26,50.38l-4.22-1.76c-3.69-1.59-3.6-5.16-3.59-5.34v-13.29l7.81,3.27v17.12ZM2.99,29.07l-.4-.17,6.78-2.83c2.65-1.1,5.69-1.11,8.34,0l3.21,1.34-10.93,4.59-6.99-2.93ZM21.99,67.54l-6.91-2.98c-2.66-1.14-4.38-3.76-4.38-6.65v-5.37l11.4,4.76-.11,10.23ZM11.71,51.4l10.38-4.43v8.77s-10.38-4.34-10.38-4.34ZM35.69,1.49c.13-.06.28-.06.41,0l11.03,4.59-11.23,4.69-11.22-4.66,11.02-4.62ZM25.26,11.6c-1.06-.44-1.74-1.47-1.74-2.61v-1.79l11.55,4.8v3.68l-9.81-4.07ZM35.18,52.96c.06,1.67-.77,3.22-2.25,4.24-1.75,1.2-4.01,1.4-6.06.53l-3.33-1.39-.02-35.7,11.65,4.84v25.98s0,.05.01.08v1.43ZM44.26,47.2l-7.65,3.18v-24.89l11.67-4.87v21.04c0,.16.11,3.82-4.02,5.54ZM47.12,19.53l-11.24,4.69-3.73-1.55-7.48-3.11,7.96-3.34,2.99,1.24c.09.04.19.05.28.05l.19-.02,3.08-1.28,7.96,3.31ZM36.73,15.66v-3.68l11.54-4.81v1.21c0,1.49-.89,2.83-2.28,3.41l-9.27,3.87Z"/>
  </g>
</svg>